<?xml version="1.0" encoding="UTF-8"?>
<svg version="1.1" viewBox="0 0 11 14" xmlns="http://www.w3.org/2000/svg" xmlns:xlink="http://www.w3.org/1999/xlink">
    <!--Generated by IJSVG (https://github.com/iconjar/IJSVG)-->
    <path d="M10.5,0c0.135333,0 0.252667,0.0493333 0.352,0.148c0.0993333,0.0986667 0.148667,0.216 0.148,0.352v13c0,0.135333 -0.0493333,0.252667 -0.148,0.352c-0.0986667,0.0993333 -0.216,0.148667 -0.352,0.148h-10c-0.135333,0 -0.252667,-0.0493333 -0.352,-0.148c-0.0993333,-0.0986667 -0.148667,-0.216 -0.148,-0.352v-13c0,-0.135333 0.0493333,-0.252667 0.148,-0.352c0.0986667,-0.0993333 0.216,-0.148667 0.352,-0.148h10Zm-6.5,2.25v0.5c0,0.0726667 0.0233333,0.132667 0.07,0.18c0.0466667,0.0473333 0.106667,0.0706667 0.18,0.07h0.5c0.0726667,0 0.132667,-0.0233333 0.18,-0.07c0.0473333,-0.0466667 0.0706667,-0.106667 0.07,-0.18v-0.5c0,-0.0726667 -0.0233333,-0.132667 -0.07,-0.18c-0.0466667,-0.0473333 -0.106667,-0.0706667 -0.18,-0.07h-0.5c-0.0726667,0 -0.132667,0.0233333 -0.18,0.07c-0.0473333,0.0466667 -0.0706667,0.106667 -0.07,0.18Zm0,2v0.5c0,0.0726667 0.0233333,0.132667 0.07,0.18c0.0466667,0.0473333 0.106667,0.0706667 0.18,0.07h0.5c0.0726667,0 0.132667,-0.0233333 0.18,-0.07c0.0473333,-0.0466667 0.0706667,-0.106667 0.07,-0.18v-0.5c0,-0.0726667 -0.0233333,-0.132667 -0.07,-0.18c-0.0466667,-0.0473333 -0.106667,-0.0706667 -0.18,-0.07h-0.5c-0.0726667,0 -0.132667,0.0233333 -0.18,0.07c-0.0473333,0.0466667 -0.0706667,0.106667 -0.07,0.18Zm0,2v0.5c0,0.0726667 0.0233333,0.132667 0.07,0.18c0.0466667,0.0473333 0.106667,0.0706667 0.18,0.07h0.5c0.0726667,0 0.132667,-0.0233333 0.18,-0.07c0.0473333,-0.0466667 0.0706667,-0.106667 0.07,-0.18v-0.5c0,-0.0726667 -0.0233333,-0.132667 -0.07,-0.18c-0.0466667,-0.0473333 -0.106667,-0.0706667 -0.18,-0.07h-0.5c-0.0726667,0 -0.132667,0.0233333 -0.18,0.07c-0.0473333,0.0466667 -0.0706667,0.106667 -0.07,0.18Zm0,2v0.5c0,0.0726667 0.0233333,0.132667 0.07,0.18c0.0466667,0.0473333 0.106667,0.0706667 0.18,0.07h0.5c0.0726667,0 0.132667,-0.0233333 0.18,-0.07c0.0473333,-0.0466667 0.0706667,-0.106667 0.07,-0.18v-0.5c0,-0.0726667 -0.0233333,-0.132667 -0.07,-0.18c-0.0466667,-0.0473333 -0.106667,-0.0706667 -0.18,-0.07h-0.5c-0.0726667,0 -0.132667,0.0233333 -0.18,0.07c-0.0473333,0.0466667 -0.0706667,0.106667 -0.07,0.18Zm-1,2.5v-0.5c0,-0.0726667 -0.0233333,-0.132667 -0.07,-0.18c-0.0466667,-0.0473333 -0.106667,-0.0706667 -0.18,-0.07h-0.5c-0.0726667,0 -0.132667,0.0233333 -0.18,0.07c-0.0473333,0.0466667 -0.0706667,0.106667 -0.07,0.18v0.5c0,0.0726667 0.0233333,0.132667 0.07,0.18c0.0466667,0.0473333 0.106667,0.0706667 0.18,0.07h0.5c0.0726667,0 0.132667,-0.0233333 0.18,-0.07c0.0473333,-0.0466667 0.0706667,-0.106667 0.07,-0.18Zm0,-2v-0.5c0,-0.0726667 -0.0233333,-0.132667 -0.07,-0.18c-0.0466667,-0.0473333 -0.106667,-0.0706667 -0.18,-0.07h-0.5c-0.0726667,0 -0.132667,0.0233333 -0.18,0.07c-0.0473333,0.0466667 -0.0706667,0.106667 -0.07,0.18v0.5c0,0.0726667 0.0233333,0.132667 0.07,0.18c0.0466667,0.0473333 0.106667,0.0706667 0.18,0.07h0.5c0.0726667,0 0.132667,-0.0233333 0.18,-0.07c0.0473333,-0.0466667 0.0706667,-0.106667 0.07,-0.18Zm0,-2v-0.5c0,-0.0726667 -0.0233333,-0.132667 -0.07,-0.18c-0.0466667,-0.0473333 -0.106667,-0.0706667 -0.18,-0.07h-0.5c-0.0726667,0 -0.132667,0.0233333 -0.18,0.07c-0.0473333,0.0466667 -0.0706667,0.106667 -0.07,0.18v0.5c0,0.0726667 0.0233333,0.132667 0.07,0.18c0.0466667,0.0473333 0.106667,0.0706667 0.18,0.07h0.5c0.0726667,0 0.132667,-0.0233333 0.18,-0.07c0.0473333,-0.0466667 0.0706667,-0.106667 0.07,-0.18Zm0,-2v-0.5c0,-0.0726667 -0.0233333,-0.132667 -0.07,-0.18c-0.0466667,-0.0473333 -0.106667,-0.0706667 -0.18,-0.07h-0.5c-0.0726667,0 -0.132667,0.0233333 -0.18,0.07c-0.0473333,0.0466667 -0.0706667,0.106667 -0.07,0.18v0.5c0,0.0726667 0.0233333,0.132667 0.07,0.18c0.0466667,0.0473333 0.106667,0.0706667 0.18,0.07h0.5c0.0726667,0 0.132667,-0.0233333 0.18,-0.07c0.0473333,-0.0466667 0.0706667,-0.106667 0.07,-0.18Zm0,-2v-0.5c0,-0.0726667 -0.0233333,-0.132667 -0.07,-0.18c-0.0466667,-0.0473333 -0.106667,-0.0706667 -0.18,-0.07h-0.5c-0.0726667,0 -0.132667,0.0233333 -0.18,0.07c-0.0473333,0.0466667 -0.0706667,0.106667 -0.07,0.18v0.5c0,0.0726667 0.0233333,0.132667 0.07,0.18c0.0466667,0.0473333 0.106667,0.0706667 0.18,0.07h0.5c0.0726667,0 0.132667,-0.0233333 0.18,-0.07c0.0473333,-0.0466667 0.0706667,-0.106667 0.07,-0.18Zm4,10v-1.5c0,-0.0726667 -0.0233333,-0.132667 -0.07,-0.18c-0.0466667,-0.0473333 -0.106667,-0.0706667 -0.18,-0.07h-2.5c-0.0726667,0 -0.132667,0.0233333 -0.18,0.07c-0.0473333,0.0466667 -0.0706667,0.106667 -0.07,0.18v1.5c0,0.0726667 0.0233333,0.132667 0.07,0.18c0.0466667,0.0473333 0.106667,0.0706667 0.18,0.07h2.5c0.0726667,0 0.132667,-0.0233333 0.18,-0.07c0.0473333,-0.0466667 0.0706667,-0.106667 0.07,-0.18Zm0,-4v-0.5c0,-0.0726667 -0.0233333,-0.132667 -0.07,-0.18c-0.0466667,-0.0473333 -0.106667,-0.0706667 -0.18,-0.07h-0.5c-0.0726667,0 -0.132667,0.0233333 -0.18,0.07c-0.0473333,0.0466667 -0.0706667,0.106667 -0.07,0.18v0.5c0,0.0726667 0.0233333,0.132667 0.07,0.18c0.0466667,0.0473333 0.106667,0.0706667 0.18,0.07h0.5c0.0726667,0 0.132667,-0.0233333 0.18,-0.07c0.0473333,-0.0466667 0.0706667,-0.106667 0.07,-0.18Zm0,-2v-0.5c0,-0.0726667 -0.0233333,-0.132667 -0.07,-0.18c-0.0466667,-0.0473333 -0.106667,-0.0706667 -0.18,-0.07h-0.5c-0.0726667,0 -0.132667,0.0233333 -0.18,0.07c-0.0473333,0.0466667 -0.0706667,0.106667 -0.07,0.18v0.5c0,0.0726667 0.0233333,0.132667 0.07,0.18c0.0466667,0.0473333 0.106667,0.0706667 0.18,0.07h0.5c0.0726667,0 0.132667,-0.0233333 0.18,-0.07c0.0473333,-0.0466667 0.0706667,-0.106667 0.07,-0.18Zm0,-2v-0.5c0,-0.0726667 -0.0233333,-0.132667 -0.07,-0.18c-0.0466667,-0.0473333 -0.106667,-0.0706667 -0.18,-0.07h-0.5c-0.0726667,0 -0.132667,0.0233333 -0.18,0.07c-0.0473333,0.0466667 -0.0706667,0.106667 -0.07,0.18v0.5c0,0.0726667 0.0233333,0.132667 0.07,0.18c0.0466667,0.0473333 0.106667,0.0706667 0.18,0.07h0.5c0.0726667,0 0.132667,-0.0233333 0.18,-0.07c0.0473333,-0.0466667 0.0706667,-0.106667 0.07,-0.18Zm0,-2v-0.5c0,-0.0726667 -0.0233333,-0.132667 -0.07,-0.18c-0.0466667,-0.0473333 -0.106667,-0.0706667 -0.18,-0.07h-0.5c-0.0726667,0 -0.132667,0.0233333 -0.18,0.07c-0.0473333,0.0466667 -0.0706667,0.106667 -0.07,0.18v0.5c0,0.0726667 0.0233333,0.132667 0.07,0.18c0.0466667,0.0473333 0.106667,0.0706667 0.18,0.07h0.5c0.0726667,0 0.132667,-0.0233333 0.18,-0.07c0.0473333,-0.0466667 0.0706667,-0.106667 0.07,-0.18Zm2,8v-0.5c0,-0.0726667 -0.0233333,-0.132667 -0.07,-0.18c-0.0466667,-0.0473333 -0.106667,-0.0706667 -0.18,-0.07h-0.5c-0.0726667,0 -0.132667,0.0233333 -0.18,0.07c-0.0473333,0.0466667 -0.0706667,0.106667 -0.07,0.18v0.5c0,0.0726667 0.0233333,0.132667 0.07,0.18c0.0466667,0.0473333 0.106667,0.0706667 0.18,0.07h0.5c0.0726667,0 0.132667,-0.0233333 0.18,-0.07c0.0473333,-0.0466667 0.0706667,-0.106667 0.07,-0.18Zm0,-2v-0.5c0,-0.0726667 -0.0233333,-0.132667 -0.07,-0.18c-0.0466667,-0.0473333 -0.106667,-0.0706667 -0.18,-0.07h-0.5c-0.0726667,0 -0.132667,0.0233333 -0.18,0.07c-0.0473333,0.0466667 -0.0706667,0.106667 -0.07,0.18v0.5c0,0.0726667 0.0233333,0.132667 0.07,0.18c0.0466667,0.0473333 0.106667,0.0706667 0.18,0.07h0.5c0.0726667,0 0.132667,-0.0233333 0.18,-0.07c0.0473333,-0.0466667 0.0706667,-0.106667 0.07,-0.18Zm0,-2v-0.5c0,-0.0726667 -0.0233333,-0.132667 -0.07,-0.18c-0.0466667,-0.0473333 -0.106667,-0.0706667 -0.18,-0.07h-0.5c-0.0726667,0 -0.132667,0.0233333 -0.18,0.07c-0.0473333,0.0466667 -0.0706667,0.106667 -0.07,0.18v0.5c0,0.0726667 0.0233333,0.132667 0.07,0.18c0.0466667,0.0473333 0.106667,0.0706667 0.18,0.07h0.5c0.0726667,0 0.132667,-0.0233333 0.18,-0.07c0.0473333,-0.0466667 0.0706667,-0.106667 0.07,-0.18Zm0,-2v-0.5c0,-0.0726667 -0.0233333,-0.132667 -0.07,-0.18c-0.0466667,-0.0473333 -0.106667,-0.0706667 -0.18,-0.07h-0.5c-0.0726667,0 -0.132667,0.0233333 -0.18,0.07c-0.0473333,0.0466667 -0.0706667,0.106667 -0.07,0.18v0.5c0,0.0726667 0.0233333,0.132667 0.07,0.18c0.0466667,0.0473333 0.106667,0.0706667 0.18,0.07h0.5c0.0726667,0 0.132667,-0.0233333 0.18,-0.07c0.0473333,-0.0466667 0.0706667,-0.106667 0.07,-0.18Zm0,-2v-0.5c0,-0.0726667 -0.0233333,-0.132667 -0.07,-0.18c-0.0466667,-0.0473333 -0.106667,-0.0706667 -0.18,-0.07h-0.5c-0.0726667,0 -0.132667,0.0233333 -0.18,0.07c-0.0473333,0.0466667 -0.0706667,0.106667 -0.07,0.18v0.5c0,0.0726667 0.0233333,0.132667 0.07,0.18c0.0466667,0.0473333 0.106667,0.0706667 0.18,0.07h0.5c0.0726667,0 0.132667,-0.0233333 0.18,-0.07c0.0473333,-0.0466667 0.0706667,-0.106667 0.07,-0.18Z" fill="#FFCD00"></path>
</svg>