<?xml version="1.0" standalone="no"?>
<!DOCTYPE svg PUBLIC "-//W3C//DTD SVG 20010904//EN"
 "http://www.w3.org/TR/2001/REC-SVG-20010904/DTD/svg10.dtd">
<svg version="1.0" xmlns="http://www.w3.org/2000/svg"
 width="545.000000pt" height="195.000000pt" viewBox="0 0 545.000000 195.000000"
 preserveAspectRatio="xMidYMid meet">

<g transform="translate(0.000000,195.000000) scale(0.100000,-0.100000)"
fill="#00000" stroke-width="40" stroke="#ffcd00">
<!--<path d="M0 1178 c0 -741 1 -772 18 -750 12 15 24 21 35 16 15 -5 17 -26 17-->
<!-- -185 l0 -179 53 0 c76 0 97 -8 97 -36 0 -24 -1 -24 -110 -24 -67 0 -110 -4-->
<!-- -110 -10 0 -7 420 -10 1240 -10 1179 0 1240 1 1229 17 -8 15 8 58 88 227 54-->
<!--114 103 208 108 208 6 0 54 -93 108 -208 80 -170 97 -212 88 -226 -11 -17 52-->
<!-- -18 1289 -18 l1300 0 0 975 0 975 -2380 0 -2380 0 0 -65 c0 -62 -1 -65 -25-->
<!-- -65 l-24 0 -3 -467 c-3 -458 -3 -469 -25 -508 -50 -92 -137 -144 -244 -145-->
<!-- -114 0 -206 64 -245 169 -14 40 -17 110 -21 499 -5 434 -6 452 -24 452 -17 0-->
<!-- -19 8 -19 65 l0 65 -30 0 -30 0 0 -772z m5440 542 c0 -42 -23 -126 -38 -137-->
<!-- -11 -9 -59 -13 -154 -13 -155 0 -146 -5 -128 80 22 101 1 90 170 90 142 0 150-->
<!-- -1 150 -20z m-3621 -11 c34 -12 61 -53 61 -91 0 -13 -43 -223 -95 -467 -52-->
<!-- -245 -95 -446 -95 -448 0 -2 -70 -3 -156 -3 -143 0 -155 1 -150 18 3 9 17 71-->
<!--30 138 14 66 28 132 31 147 l7 27 -165 0 c-149 0 -166 -2 -171 -17 -6 -19 -66-->
<!-- -300 -66 -308 0 -3 -70 -5 -156 -5 -143 0 -155 1 -150 18 2 9 7 31 10 47 12-->
<!--63 167 792 177 827 12 46 53 96 94 114 39 17 745 20 794 3z m491 -1 c-1 -7 -7-->
<!-- -42 -15 -78 -8 -36 -14 -68 -15 -72 0 -5 119 -8 265 -8 218 0 271 -3 295 -15-->
<!--36 -19 50 -43 50 -90 0 -41 -125 -636 -139 -662 -18 -34 -66 -71 -106 -82 -53-->
<!-- -14 -706 -15 -757 -1 -47 14 -68 43 -68 97 0 35 169 869 185 911 3 9 44 12-->
<!--155 12 113 0 150 -3 150 -12z m2720 -2 c0 -8 -43 -215 -94 -461 -62 -292 -102-->
<!-- -457 -115 -478 -11 -18 -35 -41 -53 -52 -31 -19 -54 -20 -383 -23 -192 -2-->
<!-- -369 -1 -392 3 -62 9 -93 43 -93 102 0 74 125 652 148 682 10 14 31 34 46 45-->
<!--26 20 43 21 311 24 258 3 284 4 289 20 2 9 9 42 16 72 6 30 13 61 15 68 7 19-->
<!--305 17 305 -2z m-1129 -185 c23 -23 29 -38 29 -70 0 -46 -124 -640 -139 -668-->
<!-- -18 -34 -66 -71 -106 -82 -53 -14 -706 -15 -757 -1 -75 21 -83 66 -43 260 30-->
<!--146 53 192 110 220 38 18 62 20 312 20 l270 0 16 75 c10 42 17 82 17 90 0 13-->
<!-- -44 15 -310 15 l-310 0 0 34 c0 43 36 96 80 118 32 16 73 18 418 18 l384 0 29-->
<!-- -29z m1505 12 c-5 -18 -176 -821 -176 -829 0 -2 -70 -4 -155 -4 l-155 0 5 23-->
<!--c3 12 41 193 85 402 44 209 82 390 85 403 5 22 8 22 161 22 143 0 155 -1 150-->
<!-- -17z m-106 -953 c0 -20 -7 -20 -2620 -20 -2613 0 -2620 0 -2620 20 0 20 7 20-->
<!--2620 20 2613 0 2620 0 2620 -20z m4 -154 c18 -8 41 -24 50 -37 20 -30 21 -88-->
<!--0 -117 -15 -21 -14 -25 15 -58 60 -68 30 -169 -57 -194 -20 -5 -67 -10 -104-->
<!-- -10 l-68 0 0 215 0 215 65 0 c36 0 81 -6 99 -14z"/>-->
<path d="M5156 1693 c-3 -10 -8 -35 -12 -55 l-6 -38 125 0 c69 0 128 4 131 9
4 5 9 30 12 55 l7 46 -126 0 c-111 0 -126 -2 -131 -17z"/>
<path d="M1065 1691 c-48 -12 -74 -29 -91 -64 -20 -38 -24 -52 -118 -502 -42
 -198 -79 -370 -81 -382 -5 -23 -5 -23 123 -23 l128 0 33 153 c18 83 34 160 37
170 5 15 23 17 195 17 104 0 189 -3 189 -6 0 -10 -60 -297 -66 -316 -5 -17 5
 -18 125 -18 72 0 131 3 131 7 0 3 41 196 90 428 50 232 90 436 90 454 0 47
 -15 69 -58 81 -42 11 -679 12 -727 1z m525 -121 c0 -6 -18 -94 -40 -196 -22
 -103 -40 -188 -40 -190 0 -2 -85 -4 -190 -4 -159 0 -190 2 -190 14 0 12 52
265 75 364 5 22 7 22 195 22 122 0 190 -4 190 -10z"/>
<!--<path d="M1226 1533 c-10 -37 -66 -305 -66 -318 0 -13 27 -15 164 -15 l163 0-->
<!--32 153 c18 83 35 162 38 175 l5 22 -165 0 c-149 0 -166 -2 -171 -17z"/>-->
<path d="M1932 1248 c-51 -244 -93 -451 -92 -461 0 -10 11 -29 25 -42 l24 -25
373 0 c413 0 423 1 459 65 23 40 151 648 143 679 -3 14 -15 33 -26 43 -18 16
 -46 18 -304 21 -156 2 -284 6 -284 10 1 4 7 36 15 72 8 36 14 68 15 73 0 4
 -57 7 -128 7 l-127 0 -93 -442z m669 157 c3 -2 -22 -131 -55 -285 l-60 -280
 -194 0 c-179 0 -193 1 -188 18 3 9 30 133 61 275 30 142 57 263 60 268 6 9
367 13 376 4z"/>
<!--<path d="M2240 1373 c0 -10 -99 -473 -106 -496 -5 -16 6 -17 163 -15 l168 3-->
<!--52 240 c29 132 52 248 53 258 0 15 -14 17 -165 17 -91 0 -165 -3 -165 -7z"/>-->
<path d="M4745 1678 c-2 -7 -10 -42 -18 -78 l-13 -65 -286 -5 c-270 -5 -288
 -6 -314 -26 -55 -40 -62 -63 -129 -380 -36 -171 -65 -321 -65 -333 0 -12 11
 -33 25 -46 l24 -25 373 0 c413 0 423 1 459 65 14 24 199 859 199 896 0 15
 -250 11 -255 -3z m-65 -285 c0 -10 -26 -138 -57 -285 l-58 -268 -193 0 c-180
0 -193 1 -188 18 3 9 30 133 61 275 30 142 57 263 60 268 4 5 89 9 191 9 169
0 184 -1 184 -17z"/>
<!--<path d="M4270 1133 c-29 -137 -55 -254 -58 -261 -3 -10 31 -12 164 -10 l169-->
<!--3 52 240 c29 132 52 248 53 258 0 15 -14 17 -163 17 l-164 0 -53 -247z"/>-->
<path d="M3106 1520 c-37 -12 -72 -45 -85 -81 l-10 -29 316 0 316 0 -6 -42
c-3 -24 -14 -75 -23 -115 l-16 -72 -281 -3 c-317 -3 -331 -6 -366 -76 -18 -36
 -71 -267 -71 -311 0 -12 11 -33 25 -46 l24 -25 373 0 c413 0 423 1 459 65 23
40 151 649 143 680 -3 13 -15 32 -26 42 -19 17 -47 18 -382 20 -198 1 -374 -2
 -390 -7z m461 -482 c-3 -13 -13 -62 -23 -110 l-17 -88 -194 0 c-180 0 -194 1
 -189 18 3 9 12 51 21 92 9 41 18 83 21 93 5 15 23 17 196 17 l190 0 -5 -22z"/>
<!--<path d="M3206 1013 c-3 -10 -12 -48 -20 -85 l-14 -68 168 0 167 0 13 73 c7-->
<!--39 15 78 17 85 4 9 -32 12 -160 12 -149 0 -166 -2 -171 -17z"/>-->
<path d="M5115 1498 c-3 -13 -39 -183 -80 -378 -41 -195 -77 -365 -80 -377 -5
 -23 -5 -23 123 -23 l129 0 62 298 c35 163 73 343 86 400 l22 102 -128 0 c-125
0 -129 -1 -134 -22z"/>
<path d="M5160 225 l0 -185 74 0 c65 0 78 3 104 25 39 32 48 74 27 114 -8 17
 -19 31 -23 31 -4 0 -15 7 -25 15 -18 13 -18 15 4 44 31 42 29 88 -5 118 -22
19 -38 23 -92 23 l-64 0 0 -185z m111 165 c96 -27 57 -140 -48 -140 l-43 0 0
75 0 75 28 0 c15 0 43 -5 63 -10z m54 -190 c32 -30 34 -84 3 -117 -18 -19 -32
 -23 -85 -23 l-63 0 0 78 c0 43 3 82 8 86 4 4 31 6 60 4 37 -3 59 -11 77 -28z"/>
<!--<path d="M5200 320 c0 -55 5 -58 59 -39 66 23 47 89 -26 89 -33 0 -33 0 -33-->
<!-- -50z"/>-->
<!--<path d="M5200 140 l0 -60 44 0 c36 0 48 5 65 26 27 34 26 46 -2 72 -16 15-->
<!-- -36 22 -65 22 l-42 0 0 -60z"/>-->
<path d="M80 1880 c0 -36 3 -40 25 -40 l25 0 0 -448 c0 -494 2 -514 61 -585
107 -129 311 -106 394 45 l30 53 3 468 c3 455 4 467 23 467 16 0 19 7 19 40
l0 40 -290 0 -290 0 0 -40z m450 -125 l0 -85 -160 0 -160 0 0 85 0 85 160 0
160 0 0 -85z m4 -187 c11 -42 7 -601 -5 -643 -17 -59 -74 -112 -132 -120 -68
 -10 -134 24 -164 85 -22 43 -23 52 -23 372 l0 328 159 0 c156 0 159 0 165 -22z"/>
<!--<path d="M240 1760 l0 -60 135 0 135 0 0 60 0 60 -135 0 -135 0 0 -60z"/>-->
<path stroke-width="10px" d="M232 1248 c3 -279 5 -317 21 -346 52 -96 189 -96 238 0 17 34 19 62
19 348 l0 310 -141 0 -140 0 3 -312z m232 166 c21 -20 20 -58 0 -89 -23 -35
 -54 -32 -81 8 -28 41 -28 48 -3 75 24 26 62 29 84 6z m-103 -201 c35 -21 37
 -48 7 -80 -27 -29 -55 -29 -85 -1 -28 26 -29 52 -3 78 24 24 43 25 81 3z"/>
<!--<path d="M404 1395 c-16 -11 -16 -17 -6 -39 14 -31 33 -33 49 -6 23 36 -9 70-->
<!-- -43 45z"/>-->
<!--<path d="M297 1193 c-13 -13 -7 -42 11 -52 13 -7 24 -4 42 10 24 19 25 20 6-->
<!--34 -21 16 -48 20 -59 8z"/>-->
<path d="M30 225 l0 -185 88 2 87 1 -77 10 -78 10 0 174 c0 109 -4 173 -10
173 -6 0 -10 -68 -10 -185z"/>
<path d="M2633 344 c-17 -38 -56 -123 -87 -189 -38 -80 -51 -113 -37 -101 11
10 25 34 31 52 16 49 57 67 136 62 54 -3 68 -9 94 -33 16 -16 30 -34 30 -41 0
 -6 9 -22 20 -35 23 -27 3 22 -97 230 l-58 124 -32 -69z m81 -76 l35 -78 -84 0
 -85 0 42 85 c23 47 46 81 49 77 4 -4 23 -42 43 -84z"/>
<!--<path d="M2642 255 l-22 -45 45 0 45 0 -15 38 c-24 55 -29 56 -53 7z"/>-->
<!--<path d="M2615 142 c-23 -5 -35 -18 -51 -51 -11 -24 -34 -55 -50 -67 l-29 -24-->
<!--180 0 180 0 -27 23 c-14 12 -33 38 -42 57 -9 19 -25 41 -36 47 -25 16 -87 23-->
<!-- -125 15z"/>-->
</g>
</svg>
