<?xml version="1.0" encoding="UTF-8"?>
<svg version="1.1" viewBox="0 0 11 14" xmlns="http://www.w3.org/2000/svg" xmlns:xlink="http://www.w3.org/1999/xlink">
    <!--Generated by IJSVG (https://github.com/iconjar/IJSVG)-->
    <path d="M11,9.687c0,0.140667 -0.026,0.324333 -0.078,0.551c-0.052,0.226667 -0.106667,0.405 -0.164,0.535c-0.109333,0.260667 -0.427,0.536667 -0.953,0.828c-0.489333,0.265333 -0.973667,0.398 -1.453,0.398c-0.140667,0 -0.277333,-0.009 -0.41,-0.027c-0.132667,-0.018 -0.282333,-0.0506667 -0.449,-0.098c-0.166667,-0.0473333 -0.290333,-0.085 -0.371,-0.113c-0.0806667,-0.028 -0.225333,-0.0813333 -0.434,-0.16c-0.208667,-0.0786667 -0.336333,-0.125667 -0.383,-0.141c-0.510667,-0.182 -0.966333,-0.398 -1.367,-0.648c-0.666667,-0.411333 -1.35533,-0.972667 -2.066,-1.684c-0.710667,-0.711333 -1.272,-1.4 -1.684,-2.066c-0.25,-0.401333 -0.466,-0.857 -0.648,-1.367c-0.0153333,-0.0466667 -0.0623333,-0.174333 -0.141,-0.383c-0.0786667,-0.208667 -0.132,-0.353333 -0.16,-0.434c-0.028,-0.0806667 -0.0656667,-0.204333 -0.113,-0.371c-0.0473333,-0.166667 -0.08,-0.316333 -0.098,-0.449c-0.018,-0.132667 -0.027,-0.269333 -0.027,-0.41c0,-0.479333 0.132667,-0.963667 0.398,-1.453c0.292,-0.526 0.568,-0.843667 0.828,-0.953c0.13,-0.0573333 0.308333,-0.112 0.535,-0.164c0.226667,-0.052 0.410333,-0.078 0.551,-0.078c0.0726667,0 0.127333,0.00766667 0.164,0.023c0.094,0.0313333 0.232,0.229333 0.414,0.594c0.0573333,0.0986667 0.135333,0.239333 0.234,0.422c0.0986667,0.182667 0.189667,0.348 0.273,0.496c0.0833333,0.148 0.164,0.287333 0.242,0.418c0.0153333,0.0206667 0.061,0.0856667 0.137,0.195c0.076,0.109333 0.132,0.201667 0.168,0.277c0.036,0.0753333 0.0543333,0.149667 0.055,0.223c0,0.104 -0.0743333,0.234333 -0.223,0.391c-0.148667,0.156667 -0.31,0.3 -0.484,0.43c-0.174,0.13 -0.335333,0.268 -0.484,0.414c-0.148667,0.146 -0.223,0.265667 -0.223,0.359c0,0.0466667 0.013,0.105333 0.039,0.176c0.026,0.0706667 0.048,0.124 0.066,0.16c0.018,0.036 0.0543333,0.0983333 0.109,0.187c0.0546667,0.0886667 0.0846667,0.138 0.09,0.148c0.396,0.713333 0.849,1.32533 1.359,1.836c0.51,0.510667 1.122,0.963667 1.836,1.359c0.0106667,0.00533333 0.06,0.0353333 0.148,0.09c0.088,0.0546667 0.150333,0.091 0.187,0.109c0.0366667,0.018 0.09,0.04 0.16,0.066c0.07,0.026 0.128667,0.039 0.176,0.039c0.094,0 0.213667,-0.0743333 0.359,-0.223c0.145333,-0.148667 0.283333,-0.31 0.414,-0.484c0.130667,-0.174 0.274,-0.335333 0.43,-0.484c0.156,-0.148667 0.286333,-0.223 0.391,-0.223c0.0726667,0 0.147,0.0183333 0.223,0.055c0.076,0.0366667 0.168333,0.0926667 0.277,0.168c0.108667,0.0753333 0.173667,0.121 0.195,0.137c0.13,0.078 0.269333,0.158667 0.418,0.242c0.148667,0.0833333 0.314,0.174333 0.496,0.273c0.182,0.0986667 0.322667,0.176667 0.422,0.234c0.364667,0.182 0.562667,0.32 0.594,0.414c0.0153333,0.0366667 0.023,0.0913333 0.023,0.164Z" fill="#FFCD00"></path>
</svg>